<?xml version="1.0" encoding="utf-8"?>
<!-- Generator: Adobe Illustrator 24.0.0, SVG Export Plug-In . SVG Version: 6.00 Build 0)  -->
<svg version="1.1" id="Layer_1" xmlns="http://www.w3.org/2000/svg" xmlns:xlink="http://www.w3.org/1999/xlink" x="0px" y="0px"
	 viewBox="0 0 1770 909" enable-background="new 0 0 1770 909" xml:space="preserve">
<g>
	<path fill="#FFFFFF" d="M1770,909c-590,0-1180,0-1770,0C0,606,0,303,0,0c590,0,1180,0,1770,0C1770,303,1770,606,1770,909z
		 M1227.8,705.3c4.1,1.5,7.1,3.3,10.1,3.5c4.3,0.3,8.7-0.1,12.9-0.9c3.3-0.7,6.4-3.3,9.7-3.5c9.9-0.7,19.8-0.7,29.8-1.1
		c10.5-0.3,20.9-0.5,31.4-1.2c13-0.8,26.1-2.2,39.1-3.2c15.1-1.1,30.2-2,45.3-3.1c5.6-0.4,11.2-1.3,16.8-1.9
		c13.7-1.5,27.4-3,41.1-4.6c14-1.7,27.9-4.9,41.9-5c15-0.1,29.2-3.3,43.5-6.7c6.5-1.5,7.3-3.1,4.2-9c-2.6-5-1.7-9.8,0.4-14.2
		c3.6-7.4,7.6-14.7,11.9-21.7c1.3-2.2,3.9-3.7,6.2-5.1c4.9-3,10.3-5.3,15-8.6c4-2.8,6.3-6.9,5.8-12.3c-0.4-4.1-0.9-8.6,0.4-12.4
		c7.6-22.6,8-46.2,9.4-69.6c0.3-5.6-1.1-11.2-0.8-16.8c0.5-8.7-1.8-16.6-5.3-24.3c-9.4-21-22.2-39.8-37.1-57.2
		c-20.1-23.5-43.2-43.7-68.4-61.5c-20.1-14.3-42.2-24.4-65.9-30.8c-13.8-3.8-28-6.4-42.2-8.8c-12.6-2.2-25.3-3.6-38-5
		c-10.3-1.1-20.7-1.6-31.1-2.2c-18.7-1-37.3-1.8-56-2.7c-2-0.1-4,0.2-5.9,0c-5.4-0.5-10.8-1.1-16.3-1.7c-0.1,0.8-0.2,1.6-0.3,2.5
		c10.4,1.2,20.8,2.4,31.2,3.6c0.1,0.7,0.1,1.3,0.2,2c-3.2,1.5-6.3,3.6-9.7,4.3c-16.2,3.3-32.4,7.1-48.8,8.9
		c-28.4,3.1-56.9,5.1-85.4,7.1c-21.2,1.5-42.5,2.5-63.7,3c-29.8,0.8-59.6,1.6-89.5,1.2c-52.9-0.6-105.9-1.9-158.8-3.1
		c-26.6-0.6-53.3-1.6-79.9-2c-19.1-0.3-38.2,0-57.4,0.1c-4.7,0-9-1.4-14.2-0.8c-11.4,1.3-23.2-0.1-34.8-0.8
		c-6.9-0.4-13.8-1.8-20.7-2.6c-16.3-2.1-32.6-3.8-48.8-6.2c-10.2-1.5-19.7-4.8-26.7-13.3c-1.1-1.3-3.4-1.8-5.3-2.3
		c-18.1-4.4-35.6-10.7-52.6-18.3c-5.9-2.6-11.4-6.3-13.2-13.2c-1-4-2.2-8.1-2.5-12.2c-1.8-25.6,4.1-49,20.3-69.3
		c0.1-0.1-0.1-0.6-0.4-1.9c-4.6,2.3-9,4.4-13.3,6.6c-11.3,5.8-22.4,11.8-33.7,17.6c-4.7,2.4-9.5,5.8-14.5,6.3
		c-16.6,1.7-33.3,2.1-49.9,3.3c-16.8,1.2-33.5,2.3-50.2,4.1c-12.3,1.3-24.6,3.5-36.9,5.7c-11.3,2.1-22.3,5.2-33.6,7.1
		c-15.9,2.7-28,10.7-35.2,24.9c-12.5,24.7-24.2,49.8-30.9,76.8c-3.7,14.8-6.9,29.7-9.7,44.6c-1.9,10.3-2.5,20.9-4.2,31.2
		c-2.4,14.6-1.8,28.7,6.4,41.5c2.4,3.8,5.8,7,8.8,10.5c0.7-0.5,1.5-1,2.2-1.5c-1-2.2-1.9-4.4-3.1-6.4c-1.4-2.4-3.9-4.5-4.5-7.1
		c-1.6-6.5-3.3-13.2-3.4-19.8c-0.4-23.7,1.9-47,16.6-67c4.2-5.7,9.9-10.3,14.2-16c5-6.5,11-9.7,19.4-9.1c9.3,0.7,16.6,5.2,23.1,11.3
		c16.1,15.2,24.7,34.9,31.4,55.4c7.7,23.7,12.5,48,14.2,72.9c1.4,20.7,2.9,41.3,3.9,62c0.3,5.8,2.5,9.8,6.5,13.7
		c11.5,11.3,26.8,7.7,40.4,11.4c-1-9.6-1-9.6,7.6-13.8c2.7-1.3,5.3-2.6,8.1-3.7c25.2-10.6,50.8-20.3,78.8-17.8
		c15.1,1.3,30.3,3.7,45,7.6c14.5,3.9,28.5,10.1,42.6,15.6c6.5,2.5,12.5,6,19,8.6c16.4,6.5,32.9,12.6,49.4,18.9
		c0.9,0.4,1.8,0.9,2.7,1.3c11.2,5.2,22.1,11,33.6,15.3c12.3,4.6,23.4,11.3,34.1,18.5c7.1,4.8,13.1,11.1,19.8,16.5
		c3.4,2.7,7.3,4.9,10.9,7.3c0.4-0.2,0.8-0.5,1.2-0.7c-0.6-4.9-1.6-9.7-1.8-14.6c-0.8-16.6-1.3-33.2-1.9-49.8c0-0.9,0.4-1.9,0.7-2.8
		c0.7-2.3,1.9-4.6,2.1-7c1.2-17.6,1.4-35.3,3.5-52.8c1.4-10.9,5.6-21.5,8.7-32.1c5.1-17.4,12.5-33.2,25.9-46.3
		c11.3-11.1,23.8-17.6,39.6-17.7c16.9-0.1,31,7,43.7,17.5c14.6,12.1,25.5,27.1,34.8,43.7c10.5,18.8,18.6,38.6,24.7,59.1
		c4,13.4,6,27.4,8.9,41.1c2,9.7,4.2,19.4,5.6,29.2c1.8,12.4,2.9,24.9,4.3,37.4c1.3,12.2,2.8,24.4,3.7,36.6
		c0.7,9.2,15.8,26.2,25.1,27.4c0.7,0.1,1.3,0.1,2,0c7.4-0.4,14.9-1.1,22.3-1c5.4,0.1,9.7-0.5,12-6.1c0.4-1,1.2-2.1,2.2-2.6
		c10.3-5.3,20.9-10.1,31-16c8.4-4.9,20.6-2.6,25.7-13.5c13.7-8.9,28.8-14.5,45-15.8c16.9-1.3,33.9-1.6,50.8-2
		c20.1-0.4,40.3-0.5,60.5-0.6c1.3,0,3,1.2,3.7,2.4c2.9,4.4,5.4,9,8.1,13.6c2,3.5,2.5,6.7-1,9.8c-1.3,1.2-1.9,3.1-3,5.1
		c17.9,8.9,36.9,5.7,55.2,8.3C1231.8,704.8,1230.2,705,1227.8,705.3z M1031.3,697.5c0,0.4,0,0.7,0,1.1c3.8,0,7.6,0,11.4,0
		c0-0.4,0-0.7,0-1.1"/>
	<path d="M1227.8,705.3c2.4-0.3,3.9-0.5,5.8-0.8c-18.4-2.6-37.3,0.6-55.2-8.3c1.1-1.9,1.7-3.9,3-5.1c3.5-3.1,3-6.3,1-9.8
		c-2.7-4.6-5.2-9.2-8.1-13.6c-0.7-1.1-2.4-2.4-3.7-2.4c-20.2,0.1-40.3,0.1-60.5,0.6c-17,0.4-33.9,0.7-50.8,2
		c-16.3,1.2-31.3,6.9-45,15.8c-5.2,10.9-17.3,8.6-25.7,13.5c-10,5.8-20.6,10.6-31,16c-0.9,0.5-1.8,1.6-2.2,2.6
		c-2.2,5.6-6.6,6.3-12,6.1c-7.4-0.2-14.9,0.6-22.3,1c-0.7,0-1.3,0-2,0c-9.3-1.2-24.4-18.2-25.1-27.4c-0.9-12.2-2.4-24.4-3.7-36.6
		c-1.3-12.5-2.5-25-4.3-37.4c-1.4-9.8-3.7-19.5-5.6-29.2c-2.8-13.7-4.9-27.7-8.9-41.1c-6.1-20.5-14.2-40.3-24.7-59.1
		c-9.2-16.6-20.1-31.6-34.8-43.7c-12.7-10.5-26.8-17.6-43.7-17.5c-15.7,0.1-28.3,6.6-39.6,17.7c-13.3,13.1-20.8,28.9-25.9,46.3
		c-3.1,10.7-7.3,21.2-8.7,32.1c-2.2,17.5-2.3,35.2-3.5,52.8c-0.2,2.4-1.4,4.6-2.1,7c-0.3,0.9-0.7,1.9-0.7,2.8
		c0.6,16.6,1.1,33.2,1.9,49.8c0.2,4.9,1.2,9.7,1.8,14.6c-0.4,0.2-0.8,0.5-1.2,0.7c-3.7-2.4-7.5-4.6-10.9-7.3
		c-6.7-5.4-12.7-11.7-19.8-16.5c-10.7-7.2-21.8-13.9-34.1-18.5c-11.5-4.3-22.4-10.2-33.6-15.3c-0.9-0.4-1.8-0.9-2.7-1.3
		c-16.5-6.3-33-12.5-49.4-18.9c-6.5-2.5-12.5-6.1-19-8.6c-14.1-5.5-28-11.7-42.6-15.6c-14.6-3.9-29.9-6.3-45-7.6
		c-28-2.5-53.6,7.2-78.8,17.8c-2.7,1.2-5.4,2.4-8.1,3.7c-8.6,4.2-8.6,4.2-7.6,13.8c-13.7-3.7-28.9-0.1-40.4-11.4
		c-4-3.9-6.2-7.9-6.5-13.7c-1-20.7-2.5-41.4-3.9-62c-1.7-24.9-6.5-49.3-14.2-72.9c-6.6-20.5-15.3-40.2-31.4-55.4
		c-6.4-6.1-13.8-10.6-23.1-11.3c-8.3-0.6-14.3,2.6-19.4,9.1c-4.3,5.6-10,10.3-14.2,16c-14.7,20-17,43.3-16.6,67
		c0.1,6.6,1.8,13.3,3.4,19.8c0.6,2.6,3.1,4.7,4.5,7.1c1.2,2.1,2.1,4.3,3.1,6.4c-0.7,0.5-1.5,1-2.2,1.5c-2.9-3.5-6.3-6.7-8.8-10.5
		c-8.2-12.8-8.8-26.9-6.4-41.5c1.7-10.4,2.3-20.9,4.2-31.2c2.8-15,6-29.9,9.7-44.6c6.7-27,18.4-52.1,30.9-76.8
		c7.2-14.3,19.3-22.2,35.2-24.9c11.3-1.9,22.3-5,33.6-7.1c12.2-2.2,24.5-4.4,36.9-5.7c16.7-1.8,33.5-2.9,50.2-4.1
		c16.6-1.2,33.3-1.6,49.9-3.3c5-0.5,9.8-3.9,14.5-6.3c11.3-5.8,22.5-11.7,33.7-17.6c4.3-2.2,8.7-4.3,13.3-6.6
		c0.3,1.3,0.5,1.7,0.4,1.9c-16.2,20.4-22.2,43.7-20.3,69.3c0.3,4.1,1.5,8.2,2.5,12.2c1.8,6.9,7.3,10.6,13.2,13.2
		c17,7.6,34.5,13.8,52.6,18.3c1.9,0.5,4.2,1,5.3,2.3c6.9,8.5,16.5,11.8,26.7,13.3c16.2,2.4,32.6,4.2,48.8,6.2
		c6.9,0.9,13.8,2.2,20.7,2.6c11.6,0.7,23.4,2.2,34.8,0.8c5.1-0.6,9.5,0.8,14.2,0.8c19.1-0.1,38.2-0.4,57.4-0.1
		c26.6,0.4,53.3,1.4,79.9,2c52.9,1.1,105.9,2.5,158.8,3.1c29.8,0.3,59.6-0.5,89.5-1.2c21.2-0.6,42.5-1.6,63.7-3
		c28.5-2,57-4,85.4-7.1c16.4-1.8,32.6-5.7,48.8-8.9c3.4-0.7,6.5-2.8,9.7-4.3c-0.1-0.7-0.1-1.3-0.2-2c-10.4-1.2-20.8-2.4-31.2-3.6
		c0.1-0.8,0.2-1.6,0.3-2.5c5.4,0.6,10.8,1.2,16.3,1.7c2,0.2,4-0.1,5.9,0c18.7,0.9,37.3,1.7,56,2.7c10.4,0.6,20.8,1.1,31.1,2.2
		c12.7,1.3,25.4,2.8,38,5c14.1,2.4,28.3,5.1,42.2,8.8c23.7,6.4,45.7,16.6,65.9,30.8c25.2,17.9,48.3,38,68.4,61.5
		c14.9,17.4,27.7,36.2,37.1,57.2c3.5,7.7,5.7,15.6,5.3,24.3c-0.3,5.6,1.1,11.2,0.8,16.8c-1.4,23.4-1.8,46.9-9.4,69.6
		c-1.3,3.8-0.8,8.3-0.4,12.4c0.5,5.5-1.8,9.5-5.8,12.3c-4.7,3.3-10.1,5.6-15,8.6c-2.3,1.4-4.9,2.9-6.2,5.1
		c-4.3,7.1-8.3,14.3-11.9,21.7c-2.1,4.5-3,9.3-0.4,14.2c3.1,5.9,2.3,7.4-4.2,9c-14.3,3.4-28.5,6.6-43.5,6.7c-14,0.1-27.9,3.3-41.9,5
		c-13.7,1.6-27.4,3.1-41.1,4.6c-5.6,0.6-11.2,1.5-16.8,1.9c-15.1,1.1-30.2,1.9-45.3,3.1c-13,1-26.1,2.4-39.1,3.2
		c-10.4,0.7-20.9,0.8-31.4,1.2c-9.9,0.3-19.9,0.3-29.8,1.1c-3.3,0.2-6.3,2.9-9.7,3.5c-4.2,0.8-8.6,1.2-12.9,0.9
		C1234.9,708.6,1231.9,706.8,1227.8,705.3z M1372.5,671.1c0,0.5,0,1,0.1,1.5c15.7-1.2,31.5-2.3,47.2-3.5c26.5-2.1,52-8.8,76.2-19.4
		c22.6-10,41-25.1,52.5-47.6c5-9.8,8.8-20,7.6-31.4c-0.7-6.3-5.2-12.5-13.8-11.1c-19,3.1-38.1,6.2-57.3,8.1c-30,3-60,5.3-90,7.4
		c-32.2,2.3-64.4,3.9-96.6,6c-7.6,0.5-15.2,1.4-22.7,3c-16.1,3.4-25.6,15.8-23.8,30.6c1.1,9.3,5.2,17.5,11.6,24.3
		c18.3,19.8,40.9,31,68,31.9C1345.3,671.5,1358.9,671.1,1372.5,671.1z M1256.7,509.1c-0.9-1.3-1.2-2.2-1.8-2.6
		c-5.6-3.6-11-7.4-16.8-10.4c-48.9-25.3-99.7-46.2-151.5-64.7c-22.1-7.9-44.4-15.2-67.6-19.3c-30.8-5.4-62-7-93.3-7.1
		c-2.6,0-5.3,1.4-9.3,2.5c2.1,1.3,2.6,1.6,3.1,1.9c27.8,15.3,55.6,30.8,83.6,45.8c20.1,10.8,40.2,21.9,61.2,30.9
		c34.8,14.8,72.2,18,109.4,21c11.6,0.9,23.2,1.7,34.8,2.3c14,0.7,27.9,1.2,41.9,1.6C1252.3,511,1254.3,509.8,1256.7,509.1z
		 M1539.1,487.3c0.8-0.1,2,0.1,2.8-0.4c8.8-4.9,17.9-9.5,26.1-15.3c2.8-2,4.4-7.1,4.4-10.9c0.1-4.1-1.8-8.4-3.6-12.2
		c-5.8-12.6-15.2-22.6-24.9-32.1c-14.4-14.1-29.6-27.3-44.3-41.1c-4.8-4.5-9.7-5.8-15.6-2.2c-2.1,1.3-4.6,2-6.8,3.2
		c-10.5,5.6-11.9,9.7-5.7,19.8c16.9,27.4,34.1,54.7,51.2,82.1C1526.5,484.1,1532.2,486.7,1539.1,487.3z M1194.7,397.7
		c-2.8-1.2-4.3-2.1-5.9-2.6c-15.1-4.8-30.2-9.9-45.4-14.3c-21.7-6.3-43.1-13.6-66.5-12c-16.7,1.2-33.6,0.4-50.3,0.4
		c-27.4,0.1-54.8,0.1-82.2,0.1c-1,0-2,0.4-4,0.8C1024.1,391.3,1108,401,1194.7,397.7z M1226.9,359.4c2.6,1.3,4,1.9,5.3,2.6
		c16.7,8.8,33.6,17.2,49.9,26.5c4.5,2.6,8.4,3.9,13.4,2.9c5.5-1.1,11.3-1.2,16.7-2.5c11.4-2.7,22.9-5.5,34.1-9.3
		c7.7-2.6,7.6-5.6,1.2-10.5c-12.2-9.5-26.1-15.7-40.7-20.4c-3.3-1.1-7.4-0.9-10.9-0.3c-9.3,1.5-18.4,3.9-27.7,5.3
		C1255,355.9,1241.7,357.4,1226.9,359.4z M444.1,309.1c0-5.1,0.2-10.3,0-15.4c-0.3-9.1-3.4-12-12.5-12c-6.1,0-12.4-0.4-18.4,0.3
		c-7,0.8-13.9,2.4-20.7,4.1c-4.4,1.1-4.5,4.3-2.3,7.7c2.1,3.2,4.3,6.2,6.5,9.3c9.1,12.6,20.4,22.4,35.1,28.1
		c8.3,3.2,12.2,0.7,12.3-8.1C444.1,318.4,444.1,313.7,444.1,309.1z M1392.6,479.5c-2.9,1.4-5.4,2.5-7.9,3.7c1.7,2.3,3.2,5,5.3,7
		c1.3,1.3,3.5,1.8,5.3,2.5c0.6,0.2,1.6,0.2,2.2-0.1c2.3-1.5,1.8-0.8,3.3,0.1c2.3,1.4,5.3,2,8,2.2c1.4,0.1,4.1-1.9,4-2.6
		c-0.4-2-1.4-4.8-3-5.6C1404.4,483.9,1398.7,482,1392.6,479.5z M677.2,447c0-3.3,0-6,0-10.6c-4.4,1.8-7.7,3.1-10.9,4.7
		c-0.3,0.2,0.2,3,1,4.1C670,448.9,673.7,448,677.2,447z"/>
</g>
</svg>
